{
  "accessors": [
    {
      "bufferView": 2,
      "componentType": 5126,
      "count": 21440,
      "max": [
        0.022615235298871994,
        0.3655841052532196,
        0.09016796946525574
      ],
      "min": [
        -0.0486762672662735,
        -0.5220779180526733,
        -0.1726454347372055
      ],
      "type": "VEC3"
    },
    {
      "bufferView": 2,
      "byteOffset": 257280,
      "componentType": 5126,
      "count": 21440,
      "type": "VEC3"
    },
    {
      "bufferView": 3,
      "componentType": 5126,
      "count": 21440,
      "type": "VEC4"
    },
    {
      "bufferView": 1,
      "componentType": 5126,
      "count": 21440,
      "type": "VEC2"
    },
    {
      "bufferView": 0,
      "componentType": 5125,
      "count": 93060,
      "type": "SCALAR"
    }
  ],
  "asset": {
    "generator": "fab-model-conversion",
    "version": "2.0"
  },
  "bufferViews": [
    {
      "buffer": 0,
      "byteLength": 372240,
      "target": 34963
    },
    {
      "buffer": 0,
      "byteLength": 171520,
      "byteOffset": 372240,
      "byteStride": 8,
      "target": 34962
    },
    {
      "buffer": 0,
      "byteLength": 514560,
      "byteOffset": 543760,
      "byteStride": 12,
      "target": 34962
    },
    {
      "buffer": 0,
      "byteLength": 343040,
      "byteOffset": 1058320,
      "byteStride": 16,
      "target": 34962
    }
  ],
  "buffers": [
    {
      "byteLength": 1401360,
      "uri": "scene.bin"
    }
  ],
  "images": [
    {
      "uri": "textures/AK_BaseColor.jpeg"
    },
    {
      "uri": "textures/AK_ORM.jpeg"
    },
    {
      "uri": "textures/AK_Normal.png"
    }
  ],
  "materials": [
    {
      "doubleSided": true,
      "name": "AK",
      "normalTexture": {
        "index": 2
      },
      "occlusionTexture": {
        "index": 1
      },
      "pbrMetallicRoughness": {
        "baseColorTexture": {
          "index": 0
        },
        "metallicRoughnessTexture": {
          "index": 1
        }
      }
    }
  ],
  "meshes": [
    {
      "name": "AK_AK_0",
      "primitives": [
        {
          "attributes": {
            "NORMAL": 1,
            "POSITION": 0,
            "TANGENT": 2,
            "TEXCOORD_0": 3
          },
          "indices": 4,
          "material": 0,
          "mode": 4
        }
      ]
    }
  ],
  "nodes": [
    {
      "children": [
        1
      ],
      "matrix": [
        1.0,
        0.0,
        0.0,
        0.0,
        0.0,
        2.220446049250313e-16,
        -1.0,
        0.0,
        0.0,
        1.0,
        2.220446049250313e-16,
        0.0,
        0.0,
        0.0,
        0.0,
        1.0
      ],
      "name": "FAB converted model"
    },
    {
      "children": [
        2
      ],
      "matrix": [
        0.009999999776482582,
        0.0,
        0.0,
        0.0,
        0.0,
        0.0,
        0.009999999776482582,
        0.0,
        0.0,
        -0.009999999776482582,
        0.0,
        0.0,
        0.0,
        0.0,
        0.0,
        1.0
      ],
      "name": "AK47NoSubdiv.fbx"
    },
    {
      "children": [
        3,
        5
      ],
      "name": "RootNode"
    },
    {
      "children": [
        4
      ],
      "matrix": [
        100.0,
        0.0,
        0.0,
        0.0,
        0.0,
        -1.629206793918314e-05,
        -99.99999999999868,
        0.0,
        0.0,
        99.99999999999868,
        -1.629206793918314e-05,
        0.0,
        0.0,
        0.0,
        0.0,
        1.0
      ],
      "name": "AK"
    },
    {
      "mesh": 0,
      "name": "AK_AK_0"
    },
    {
      "children": [
        6
      ],
      "matrix": [
        -82.96261626270669,
        -38.621691458124396,
        -40.31834882234535,
        0.0,
        -34.736660517413334,
        92.24079872116974,
        -16.88192724124318,
        0.0,
        43.710049501404306,
        -0.0004405582236938955,
        -89.94125886661719,
        0.0,
        1088.9554443359375,
        530.3021240234375,
        575.601318359375,
        1.0
      ],
      "name": "Camera"
    },
    {
      "name": "Object_6"
    }
  ],
  "samplers": [
    {
      "magFilter": 9729,
      "minFilter": 9987,
      "wrapS": 10497,
      "wrapT": 10497
    }
  ],
  "scene": 0,
  "scenes": [
    {
      "name": "FAB converted",
      "nodes": [
        0
      ]
    }
  ],
  "textures": [
    {
      "sampler": 0,
      "source": 0
    },
    {
      "sampler": 0,
      "source": 1
    },
    {
      "sampler": 0,
      "source": 2
    }
  ]
}
